<?xml version="1.0" encoding="UTF-8" standalone="no"?>
<!DOCTYPE svg PUBLIC "-//W3C//DTD SVG 1.1//EN"
 "http://www.w3.org/Graphics/SVG/1.1/DTD/svg11.dtd">
<!-- Generated by graphviz version 2.40.1 (20161225.0304)
 -->
<!-- Title: G Pages: 1 -->
<svg width="475pt" height="510pt"
 viewBox="0.00 0.00 475.16 509.82" xmlns="http://www.w3.org/2000/svg" xmlns:xlink="http://www.w3.org/1999/xlink">
<g id="graph0" class="graph" transform="scale(1 1) rotate(0) translate(4 505.823)">
<title>G</title>
<polygon fill="#ffffff" stroke="transparent" points="-4,4 -4,-505.823 471.1572,-505.823 471.1572,4 -4,4"/>
<!-- system.ruby.network.routers0 -->
<g id="node1" class="node">
<title>system.ruby.network.routers0</title>
<path fill="#cce6fc" stroke="#000000" d="M157.4568,-309.8846C157.4568,-309.8846 187.4568,-309.8846 187.4568,-309.8846 193.4568,-309.8846 199.4568,-315.8846 199.4568,-321.8846 199.4568,-321.8846 199.4568,-333.8846 199.4568,-333.8846 199.4568,-339.8846 193.4568,-345.8846 187.4568,-345.8846 187.4568,-345.8846 157.4568,-345.8846 157.4568,-345.8846 151.4568,-345.8846 145.4568,-339.8846 145.4568,-333.8846 145.4568,-333.8846 145.4568,-321.8846 145.4568,-321.8846 145.4568,-315.8846 151.4568,-309.8846 157.4568,-309.8846"/>
<text text-anchor="middle" x="172.4568" y="-324.1846" font-family="Arial" font-size="14.00" fill="#000000">R 0</text>
</g>
<!-- system.ruby.network.routers1 -->
<g id="node2" class="node">
<title>system.ruby.network.routers1</title>
<path fill="#cce6fc" stroke="#000000" d="M180.183,-221.5002C180.183,-221.5002 210.183,-221.5002 210.183,-221.5002 216.183,-221.5002 222.183,-227.5002 222.183,-233.5002 222.183,-233.5002 222.183,-245.5002 222.183,-245.5002 222.183,-251.5002 216.183,-257.5002 210.183,-257.5002 210.183,-257.5002 180.183,-257.5002 180.183,-257.5002 174.183,-257.5002 168.183,-251.5002 168.183,-245.5002 168.183,-245.5002 168.183,-233.5002 168.183,-233.5002 168.183,-227.5002 174.183,-221.5002 180.183,-221.5002"/>
<text text-anchor="middle" x="195.183" y="-235.8002" font-family="Arial" font-size="14.00" fill="#000000">R 1</text>
</g>
<!-- system.ruby.network.routers0&#45;&#45;system.ruby.network.routers1 -->
<g id="edge1" class="edge">
<title>system.ruby.network.routers0&#45;&#45;system.ruby.network.routers1</title>
<path fill="none" stroke="#042d50" d="M177.1657,-309.5713C180.2738,-297.4835 184.4074,-281.4073 187.9313,-267.7026"/>
<polygon fill="#042d50" stroke="#042d50" points="191.3795,-268.3466 190.4801,-257.79 184.6,-266.6034 191.3795,-268.3466"/>
</g>
<!-- system.ruby.network.routers2 -->
<g id="node3" class="node">
<title>system.ruby.network.routers2</title>
<path fill="#cce6fc" stroke="#000000" d="M250.3164,-165.6251C250.3164,-165.6251 280.3164,-165.6251 280.3164,-165.6251 286.3164,-165.6251 292.3164,-171.6251 292.3164,-177.6251 292.3164,-177.6251 292.3164,-189.6251 292.3164,-189.6251 292.3164,-195.6251 286.3164,-201.6251 280.3164,-201.6251 280.3164,-201.6251 250.3164,-201.6251 250.3164,-201.6251 244.3164,-201.6251 238.3164,-195.6251 238.3164,-189.6251 238.3164,-189.6251 238.3164,-177.6251 238.3164,-177.6251 238.3164,-171.6251 244.3164,-165.6251 250.3164,-165.6251"/>
<text text-anchor="middle" x="265.3164" y="-179.9251" font-family="Arial" font-size="14.00" fill="#000000">R 2</text>
</g>
<!-- system.ruby.network.routers1&#45;&#45;system.ruby.network.routers2 -->
<g id="edge2" class="edge">
<title>system.ruby.network.routers1&#45;&#45;system.ruby.network.routers2</title>
<path fill="none" stroke="#042d50" d="M218.1473,-221.2046C223.4081,-217.0134 229.083,-212.4921 234.6112,-208.0879"/>
<polygon fill="#042d50" stroke="#042d50" points="236.8997,-210.7396 242.54,-201.771 232.5378,-205.2647 236.8997,-210.7396"/>
</g>
<!-- system.ruby.network.routers3 -->
<g id="node4" class="node">
<title>system.ruby.network.routers3</title>
<path fill="#cce6fc" stroke="#000000" d="M90.3707,-362.7633C90.3707,-362.7633 120.3707,-362.7633 120.3707,-362.7633 126.3707,-362.7633 132.3707,-368.7633 132.3707,-374.7633 132.3707,-374.7633 132.3707,-386.7633 132.3707,-386.7633 132.3707,-392.7633 126.3707,-398.7633 120.3707,-398.7633 120.3707,-398.7633 90.3707,-398.7633 90.3707,-398.7633 84.3707,-398.7633 78.3707,-392.7633 78.3707,-386.7633 78.3707,-386.7633 78.3707,-374.7633 78.3707,-374.7633 78.3707,-368.7633 84.3707,-362.7633 90.3707,-362.7633"/>
<text text-anchor="middle" x="105.3707" y="-377.0633" font-family="Arial" font-size="14.00" fill="#000000">R 3</text>
</g>
<!-- system.ruby.network.routers3&#45;&#45;system.ruby.network.routers0 -->
<g id="edge3" class="edge">
<title>system.ruby.network.routers3&#45;&#45;system.ruby.network.routers0</title>
<path fill="none" stroke="#042d50" d="M128.4579,-362.5654C132.7219,-359.2045 137.2362,-355.6462 141.6852,-352.1394"/>
<polygon fill="#042d50" stroke="#042d50" points="143.8673,-354.876 149.5543,-345.9368 139.534,-349.3785 143.8673,-354.876"/>
</g>
<!-- system.ruby.network.routers4 -->
<g id="node5" class="node">
<title>system.ruby.network.routers4</title>
<path fill="#cce6fc" stroke="#000000" d="M331.9043,-203.9193C331.9043,-203.9193 361.9043,-203.9193 361.9043,-203.9193 367.9043,-203.9193 373.9043,-209.9193 373.9043,-215.9193 373.9043,-215.9193 373.9043,-227.9193 373.9043,-227.9193 373.9043,-233.9193 367.9043,-239.9193 361.9043,-239.9193 361.9043,-239.9193 331.9043,-239.9193 331.9043,-239.9193 325.9043,-239.9193 319.9043,-233.9193 319.9043,-227.9193 319.9043,-227.9193 319.9043,-215.9193 319.9043,-215.9193 319.9043,-209.9193 325.9043,-203.9193 331.9043,-203.9193"/>
<text text-anchor="middle" x="346.9043" y="-218.2193" font-family="Arial" font-size="14.00" fill="#000000">R 4</text>
</g>
<!-- system.ruby.network.routers4&#45;&#45;system.ruby.network.routers2 -->
<g id="edge4" class="edge">
<title>system.ruby.network.routers4&#45;&#45;system.ruby.network.routers2</title>
<path fill="none" stroke="#042d50" d="M319.7367,-209.1679C313.9568,-206.455 307.7645,-203.5486 301.7036,-200.7038"/>
<polygon fill="#042d50" stroke="#042d50" points="302.905,-197.4014 292.3654,-196.3208 299.9307,-203.7381 302.905,-197.4014"/>
</g>
<!-- system.ruby.network.routers5 -->
<g id="node6" class="node">
<title>system.ruby.network.routers5</title>
<path fill="#cce6fc" stroke="#000000" d="M184.4554,-391.996C184.4554,-391.996 214.4554,-391.996 214.4554,-391.996 220.4554,-391.996 226.4554,-397.996 226.4554,-403.996 226.4554,-403.996 226.4554,-415.996 226.4554,-415.996 226.4554,-421.996 220.4554,-427.996 214.4554,-427.996 214.4554,-427.996 184.4554,-427.996 184.4554,-427.996 178.4554,-427.996 172.4554,-421.996 172.4554,-415.996 172.4554,-415.996 172.4554,-403.996 172.4554,-403.996 172.4554,-397.996 178.4554,-391.996 184.4554,-391.996"/>
<text text-anchor="middle" x="199.4554" y="-406.296" font-family="Arial" font-size="14.00" fill="#000000">R 5</text>
</g>
<!-- system.ruby.network.routers5&#45;&#45;system.ruby.network.routers0 -->
<g id="edge5" class="edge">
<title>system.ruby.network.routers5&#45;&#45;system.ruby.network.routers0</title>
<path fill="none" stroke="#042d50" d="M193.4635,-391.7728C189.9681,-381.1421 185.4881,-367.5168 181.5638,-355.5818"/>
<polygon fill="#042d50" stroke="#042d50" points="184.8804,-354.4632 178.4319,-346.0568 178.2306,-356.6497 184.8804,-354.4632"/>
</g>
<!-- system.ruby.network.routers6 -->
<g id="node7" class="node">
<title>system.ruby.network.routers6</title>
<path fill="#cce6fc" stroke="#000000" d="M216.5513,-80.8822C216.5513,-80.8822 246.5513,-80.8822 246.5513,-80.8822 252.5513,-80.8822 258.5513,-86.8822 258.5513,-92.8822 258.5513,-92.8822 258.5513,-104.8822 258.5513,-104.8822 258.5513,-110.8822 252.5513,-116.8822 246.5513,-116.8822 246.5513,-116.8822 216.5513,-116.8822 216.5513,-116.8822 210.5513,-116.8822 204.5513,-110.8822 204.5513,-104.8822 204.5513,-104.8822 204.5513,-92.8822 204.5513,-92.8822 204.5513,-86.8822 210.5513,-80.8822 216.5513,-80.8822"/>
<text text-anchor="middle" x="231.5513" y="-95.1822" font-family="Arial" font-size="14.00" fill="#000000">R 6</text>
</g>
<!-- system.ruby.network.routers6&#45;&#45;system.ruby.network.routers2 -->
<g id="edge6" class="edge">
<title>system.ruby.network.routers6&#45;&#45;system.ruby.network.routers2</title>
<path fill="none" stroke="#042d50" d="M238.8779,-117.2702C243.3773,-128.5629 249.2271,-143.2446 254.2799,-155.9259"/>
<polygon fill="#042d50" stroke="#042d50" points="251.1673,-157.5699 258.1202,-165.5642 257.6701,-154.9789 251.1673,-157.5699"/>
</g>
<!-- system.ruby.l1_cntrl0 -->
<g id="node8" class="node">
<title>system.ruby.l1_cntrl0</title>
<path fill="#e5bcd0" stroke="#000000" d="M219.0461,-340.9135C219.0461,-340.9135 266.0461,-340.9135 266.0461,-340.9135 272.0461,-340.9135 278.0461,-346.9135 278.0461,-352.9135 278.0461,-352.9135 278.0461,-364.9135 278.0461,-364.9135 278.0461,-370.9135 272.0461,-376.9135 266.0461,-376.9135 266.0461,-376.9135 219.0461,-376.9135 219.0461,-376.9135 213.0461,-376.9135 207.0461,-370.9135 207.0461,-364.9135 207.0461,-364.9135 207.0461,-352.9135 207.0461,-352.9135 207.0461,-346.9135 213.0461,-340.9135 219.0461,-340.9135"/>
<text text-anchor="middle" x="242.5461" y="-355.2135" font-family="Arial" font-size="14.00" fill="#000000">l1_cntrl0</text>
</g>
<!-- system.ruby.l1_cntrl0&#45;&#45;system.ruby.network.routers0 -->
<g id="edge7" class="edge">
<title>system.ruby.l1_cntrl0&#45;&#45;system.ruby.network.routers0</title>
<path fill="none" stroke="#381526" d="M199.9121,-340.0391C199.8379,-340.0063 199.7637,-339.9735 199.6896,-339.9407"/>
<polygon fill="#381526" stroke="#381526" points="196.1193,-342.1877 206.6802,-343.0354 198.953,-335.7868 196.1193,-342.1877"/>
<polygon fill="#381526" stroke="#381526" points="210.0295,-340.6923 199.4675,-339.8423 207.1941,-347.0934 210.0295,-340.6923"/>
</g>
<!-- system.ruby.l1_cntrl1 -->
<g id="node9" class="node">
<title>system.ruby.l1_cntrl1</title>
<path fill="#e5bcd0" stroke="#000000" d="M119.2529,-158.7032C119.2529,-158.7032 166.2529,-158.7032 166.2529,-158.7032 172.2529,-158.7032 178.2529,-164.7032 178.2529,-170.7032 178.2529,-170.7032 178.2529,-182.7032 178.2529,-182.7032 178.2529,-188.7032 172.2529,-194.7032 166.2529,-194.7032 166.2529,-194.7032 119.2529,-194.7032 119.2529,-194.7032 113.2529,-194.7032 107.2529,-188.7032 107.2529,-182.7032 107.2529,-182.7032 107.2529,-170.7032 107.2529,-170.7032 107.2529,-164.7032 113.2529,-158.7032 119.2529,-158.7032"/>
<text text-anchor="middle" x="142.7529" y="-173.0032" font-family="Arial" font-size="14.00" fill="#000000">l1_cntrl1</text>
</g>
<!-- system.ruby.l1_cntrl1&#45;&#45;system.ruby.network.routers1 -->
<g id="edge8" class="edge">
<title>system.ruby.l1_cntrl1&#45;&#45;system.ruby.network.routers1</title>
<path fill="none" stroke="#381526" d="M164.6725,-202.9569C167.5472,-206.4 170.4928,-209.9281 173.3658,-213.3692"/>
<polygon fill="#381526" stroke="#381526" points="167.0136,-200.2998 157.9178,-194.8667 161.6402,-204.7861 167.0136,-200.2998"/>
<polygon fill="#381526" stroke="#381526" points="170.7747,-215.7269 179.8705,-221.16 176.1481,-211.2405 170.7747,-215.7269"/>
</g>
<!-- system.ruby.l1_cntrl2 -->
<g id="node10" class="node">
<title>system.ruby.l1_cntrl2</title>
<path fill="#e5bcd0" stroke="#000000" d="M275.2326,-95.5496C275.2326,-95.5496 322.2326,-95.5496 322.2326,-95.5496 328.2326,-95.5496 334.2326,-101.5496 334.2326,-107.5496 334.2326,-107.5496 334.2326,-119.5496 334.2326,-119.5496 334.2326,-125.5496 328.2326,-131.5496 322.2326,-131.5496 322.2326,-131.5496 275.2326,-131.5496 275.2326,-131.5496 269.2326,-131.5496 263.2326,-125.5496 263.2326,-119.5496 263.2326,-119.5496 263.2326,-107.5496 263.2326,-107.5496 263.2326,-101.5496 269.2326,-95.5496 275.2326,-95.5496"/>
<text text-anchor="middle" x="298.7326" y="-109.8496" font-family="Arial" font-size="14.00" fill="#000000">l1_cntrl2</text>
</g>
<!-- system.ruby.l1_cntrl2&#45;&#45;system.ruby.network.routers2 -->
<g id="edge9" class="edge">
<title>system.ruby.l1_cntrl2&#45;&#45;system.ruby.network.routers2</title>
<path fill="none" stroke="#381526" d="M285.7083,-140.8621C283.3178,-145.8751 280.8215,-151.1101 278.4284,-156.1285"/>
<polygon fill="#381526" stroke="#381526" points="288.9819,-142.1286 290.1271,-131.5958 282.6636,-139.1156 288.9819,-142.1286"/>
<polygon fill="#381526" stroke="#381526" points="275.154,-154.8637 274.0089,-165.3965 281.4724,-157.8768 275.154,-154.8637"/>
</g>
<!-- system.ruby.l2_cntrl0 -->
<g id="node11" class="node">
<title>system.ruby.l2_cntrl0</title>
<path fill="#e5bcd0" stroke="#000000" d="M69.7297,-296.4289C69.7297,-296.4289 116.7297,-296.4289 116.7297,-296.4289 122.7297,-296.4289 128.7297,-302.4289 128.7297,-308.4289 128.7297,-308.4289 128.7297,-320.4289 128.7297,-320.4289 128.7297,-326.4289 122.7297,-332.4289 116.7297,-332.4289 116.7297,-332.4289 69.7297,-332.4289 69.7297,-332.4289 63.7297,-332.4289 57.7297,-326.4289 57.7297,-320.4289 57.7297,-320.4289 57.7297,-308.4289 57.7297,-308.4289 57.7297,-302.4289 63.7297,-296.4289 69.7297,-296.4289"/>
<text text-anchor="middle" x="93.2297" y="-310.7289" font-family="Arial" font-size="14.00" fill="#000000">l2_cntrl0</text>
</g>
<!-- system.ruby.l2_cntrl0&#45;&#45;system.ruby.network.routers0 -->
<g id="edge10" class="edge">
<title>system.ruby.l2_cntrl0&#45;&#45;system.ruby.network.routers0</title>
<path fill="none" stroke="#381526" d="M139.0256,-322.2067C139.1566,-322.229 139.2875,-322.2512 139.4184,-322.2734"/>
<polygon fill="#381526" stroke="#381526" points="139.5792,-318.7507 129.1343,-320.5268 138.4071,-325.6519 139.5792,-318.7507"/>
<polygon fill="#381526" stroke="#381526" points="134.7742,-325.0347 145.2191,-323.2586 135.9463,-318.1335 134.7742,-325.0347"/>
</g>
<!-- system.ruby.l2_cntrl1 -->
<g id="node12" class="node">
<title>system.ruby.l2_cntrl1</title>
<path fill="#e5bcd0" stroke="#000000" d="M90.4874,-198.9987C90.4874,-198.9987 137.4874,-198.9987 137.4874,-198.9987 143.4874,-198.9987 149.4874,-204.9987 149.4874,-210.9987 149.4874,-210.9987 149.4874,-222.9987 149.4874,-222.9987 149.4874,-228.9987 143.4874,-234.9987 137.4874,-234.9987 137.4874,-234.9987 90.4874,-234.9987 90.4874,-234.9987 84.4874,-234.9987 78.4874,-228.9987 78.4874,-222.9987 78.4874,-222.9987 78.4874,-210.9987 78.4874,-210.9987 78.4874,-204.9987 84.4874,-198.9987 90.4874,-198.9987"/>
<text text-anchor="middle" x="113.9874" y="-213.2987" font-family="Arial" font-size="14.00" fill="#000000">l2_cntrl1</text>
</g>
<!-- system.ruby.l2_cntrl1&#45;&#45;system.ruby.network.routers1 -->
<g id="edge11" class="edge">
<title>system.ruby.l2_cntrl1&#45;&#45;system.ruby.network.routers1</title>
<path fill="none" stroke="#381526" d="M159.6257,-229.6463C159.7152,-229.6712 159.8048,-229.696 159.8942,-229.7208"/>
<polygon fill="#381526" stroke="#381526" points="160.4088,-226.2315 149.8373,-226.9337 158.5394,-232.9773 160.4088,-226.2315"/>
<polygon fill="#381526" stroke="#381526" points="157.4898,-232.6863 168.0614,-231.9841 159.3593,-225.9405 157.4898,-232.6863"/>
</g>
<!-- system.ruby.l2_cntrl2 -->
<g id="node13" class="node">
<title>system.ruby.l2_cntrl2</title>
<path fill="#e5bcd0" stroke="#000000" d="M313.0919,-139.7667C313.0919,-139.7667 360.0919,-139.7667 360.0919,-139.7667 366.0919,-139.7667 372.0919,-145.7667 372.0919,-151.7667 372.0919,-151.7667 372.0919,-163.7667 372.0919,-163.7667 372.0919,-169.7667 366.0919,-175.7667 360.0919,-175.7667 360.0919,-175.7667 313.0919,-175.7667 313.0919,-175.7667 307.0919,-175.7667 301.0919,-169.7667 301.0919,-163.7667 301.0919,-163.7667 301.0919,-151.7667 301.0919,-151.7667 301.0919,-145.7667 307.0919,-139.7667 313.0919,-139.7667"/>
<text text-anchor="middle" x="336.5919" y="-154.0667" font-family="Arial" font-size="14.00" fill="#000000">l2_cntrl2</text>
</g>
<!-- system.ruby.l2_cntrl2&#45;&#45;system.ruby.network.routers2 -->
<g id="edge12" class="edge">
<title>system.ruby.l2_cntrl2&#45;&#45;system.ruby.network.routers2</title>
<path fill="none" stroke="#381526" d="M292.9244,-173.609C292.8819,-173.6245 292.8394,-173.6399 292.7969,-173.6553"/>
<polygon fill="#381526" stroke="#381526" points="292.7474,-177.3966 300.9542,-170.6959 290.36,-170.8162 292.7474,-177.3966"/>
<polygon fill="#381526" stroke="#381526" points="300.8751,-166.9959 292.6695,-173.7015 303.2658,-173.5765 300.8751,-166.9959"/>
</g>
<!-- system.ruby.dir_cntrl0 -->
<g id="node14" class="node">
<title>system.ruby.dir_cntrl0</title>
<path fill="#e5bcd0" stroke="#000000" d="M12,-404.7002C12,-404.7002 64,-404.7002 64,-404.7002 70,-404.7002 76,-410.7002 76,-416.7002 76,-416.7002 76,-428.7002 76,-428.7002 76,-434.7002 70,-440.7002 64,-440.7002 64,-440.7002 12,-440.7002 12,-440.7002 6,-440.7002 0,-434.7002 0,-428.7002 0,-428.7002 0,-416.7002 0,-416.7002 0,-410.7002 6,-404.7002 12,-404.7002"/>
<text text-anchor="middle" x="38" y="-419.0002" font-family="Arial" font-size="14.00" fill="#000000">dir_cntrl0</text>
</g>
<!-- system.ruby.dir_cntrl0&#45;&#45;system.ruby.network.routers3 -->
<g id="edge13" class="edge">
<title>system.ruby.dir_cntrl0&#45;&#45;system.ruby.network.routers3</title>
<path fill="none" stroke="#381526" d="M75.7099,-399.2266C75.8115,-399.1633 75.9131,-399.1 76.0147,-399.0368"/>
<polygon fill="#381526" stroke="#381526" points="73.6022,-396.4158 66.9622,-404.6718 77.3014,-402.3585 73.6022,-396.4158"/>
<polygon fill="#381526" stroke="#381526" points="71.4984,-405.971 78.1384,-397.7149 67.7991,-400.0283 71.4984,-405.971"/>
</g>
<!-- system.ruby.dir_cntrl1 -->
<g id="node15" class="node">
<title>system.ruby.dir_cntrl1</title>
<path fill="#e5bcd0" stroke="#000000" d="M403.1572,-205.7828C403.1572,-205.7828 455.1572,-205.7828 455.1572,-205.7828 461.1572,-205.7828 467.1572,-211.7828 467.1572,-217.7828 467.1572,-217.7828 467.1572,-229.7828 467.1572,-229.7828 467.1572,-235.7828 461.1572,-241.7828 455.1572,-241.7828 455.1572,-241.7828 403.1572,-241.7828 403.1572,-241.7828 397.1572,-241.7828 391.1572,-235.7828 391.1572,-229.7828 391.1572,-229.7828 391.1572,-217.7828 391.1572,-217.7828 391.1572,-211.7828 397.1572,-205.7828 403.1572,-205.7828"/>
<text text-anchor="middle" x="429.1572" y="-220.0828" font-family="Arial" font-size="14.00" fill="#000000">dir_cntrl1</text>
</g>
<!-- system.ruby.dir_cntrl1&#45;&#45;system.ruby.network.routers4 -->
<g id="edge14" class="edge">
<title>system.ruby.dir_cntrl1&#45;&#45;system.ruby.network.routers4</title>
<path fill="none" stroke="#381526" d="M380.771,-222.6866C380.6279,-222.6834 380.4848,-222.6801 380.3419,-222.6769"/>
<polygon fill="#381526" stroke="#381526" points="380.8436,-226.1891 390.9204,-222.9165 381.0022,-219.1909 380.8436,-226.1891"/>
<polygon fill="#381526" stroke="#381526" points="384.099,-219.2613 374.0222,-222.5337 383.9403,-226.2595 384.099,-219.2613"/>
</g>
<!-- system.ruby.dir_cntrl2 -->
<g id="node16" class="node">
<title>system.ruby.dir_cntrl2</title>
<path fill="#e5bcd0" stroke="#000000" d="M204.5034,-465.323C204.5034,-465.323 256.5034,-465.323 256.5034,-465.323 262.5034,-465.323 268.5034,-471.323 268.5034,-477.323 268.5034,-477.323 268.5034,-489.323 268.5034,-489.323 268.5034,-495.323 262.5034,-501.323 256.5034,-501.323 256.5034,-501.323 204.5034,-501.323 204.5034,-501.323 198.5034,-501.323 192.5034,-495.323 192.5034,-489.323 192.5034,-489.323 192.5034,-477.323 192.5034,-477.323 192.5034,-471.323 198.5034,-465.323 204.5034,-465.323"/>
<text text-anchor="middle" x="230.5034" y="-479.623" font-family="Arial" font-size="14.00" fill="#000000">dir_cntrl2</text>
</g>
<!-- system.ruby.dir_cntrl2&#45;&#45;system.ruby.network.routers5 -->
<g id="edge15" class="edge">
<title>system.ruby.dir_cntrl2&#45;&#45;system.ruby.network.routers5</title>
<path fill="none" stroke="#381526" d="M218.9119,-455.947C216.3959,-450.0048 213.7322,-443.7141 211.2099,-437.7571"/>
<polygon fill="#381526" stroke="#381526" points="215.7065,-457.3534 222.8286,-465.1972 222.1525,-454.624 215.7065,-457.3534"/>
<polygon fill="#381526" stroke="#381526" points="214.2716,-436.0113 207.1495,-428.1674 207.8256,-438.7407 214.2716,-436.0113"/>
</g>
<!-- system.ruby.dir_cntrl3 -->
<g id="node17" class="node">
<title>system.ruby.dir_cntrl3</title>
<path fill="#e5bcd0" stroke="#000000" d="M197.0593,-.5C197.0593,-.5 249.0593,-.5 249.0593,-.5 255.0593,-.5 261.0593,-6.5 261.0593,-12.5 261.0593,-12.5 261.0593,-24.5 261.0593,-24.5 261.0593,-30.5 255.0593,-36.5 249.0593,-36.5 249.0593,-36.5 197.0593,-36.5 197.0593,-36.5 191.0593,-36.5 185.0593,-30.5 185.0593,-24.5 185.0593,-24.5 185.0593,-12.5 185.0593,-12.5 185.0593,-6.5 191.0593,-.5 197.0593,-.5"/>
<text text-anchor="middle" x="223.0593" y="-14.8" font-family="Arial" font-size="14.00" fill="#000000">dir_cntrl3</text>
</g>
<!-- system.ruby.dir_cntrl3&#45;&#45;system.ruby.network.routers6 -->
<g id="edge16" class="edge">
<title>system.ruby.dir_cntrl3&#45;&#45;system.ruby.network.routers6</title>
<path fill="none" stroke="#381526" d="M226.0666,-46.9655C226.882,-54.6843 227.7643,-63.0354 228.5779,-70.7364"/>
<polygon fill="#381526" stroke="#381526" points="229.5176,-46.3169 224.9863,-36.74 222.5563,-47.0524 229.5176,-46.3169"/>
<polygon fill="#381526" stroke="#381526" points="225.1007,-71.1375 229.632,-80.7145 232.0619,-70.402 225.1007,-71.1375"/>
</g>
</g>
</svg>
